<svg version="1.1" id="Layer_1" xmlns="http://www.w3.org/2000/svg" xmlns:xlink="http://www.w3.org/1999/xlink" x="0px" y="0px" width="58px" height="58px" viewBox="0 0 600 600" enable-background="new 0 0 600 600" xml:space="preserve">
  <path id="color_x5F_1" fill="#00ff59" d="M456.959,493.736c-10.412,0-34.584-1.859-51.774-17.636    c-10.082-9.259-16.048-21.548-17.801-36.608h-44.733c-25.219,0-45.731-20.89-45.731-46.554c0-5.374,4.348-9.722,9.724-9.722    c5.374,0,9.724,4.348,9.724,9.722c0,14.944,11.796,27.098,26.283,27.098h53.914c5.366,0,9.724,4.358,9.724,9.723    c0,13.869,4.029,24.609,11.97,31.941c8.436,7.786,19.95,10.807,28.812,11.94c-8.415-25.403-9.094-42.699-9.123-43.551    c-0.087-2.635,0.901-5.191,2.732-7.089c1.831-1.889,4.358-2.963,6.992-2.963h106.899c14.081,0,25.974-12.668,25.974-27.679v-167.97    c0-14.624-11.409-26.071-25.974-26.071h-211.92c-14.924,0-26.622,11.447-26.622,26.071v95.868c0,12.271-4.678,23.853-13.171,32.588    c-8.62,8.853-20.125,13.734-32.406,13.734h-0.019l-34.728,0.3h-22.527c-1.753,15.07-7.719,27.359-17.801,36.618    c-22.003,20.203-55.424,17.597-56.848,17.471c-3.041-0.252-5.782-1.937-7.4-4.513c-1.627-2.595-1.937-5.792-0.852-8.639    c6.973-18.245,10.189-32.26,11.661-40.937h-24.619l-71.404-0.368c-12.241,0-23.796-4.833-32.482-13.588    C4.765,344.186-0.01,332.623,0,320.333l0.059-168.058c0.009-25.373,20.657-46.012,46.021-46.012h0.01l224.945,0.049    c25.431,0,46.108,20.764,46.099,46.273c0,5.365-4.359,9.724-9.724,9.724l0,0c-5.374,0-9.724-4.359-9.724-9.733    c0-7.099-2.789-13.82-7.854-18.915c-5.055-5.094-11.727-7.903-18.797-7.903l-224.945-0.038h-0.01    c-14.643,0-26.565,11.911-26.565,26.565l-0.068,168.056c0,7.108,2.77,13.81,7.787,18.875c5.016,5.055,11.67,7.835,18.729,7.846    l71.406,0.368h35.523c2.624,0,5.132,1.055,6.962,2.933c1.831,1.88,2.828,4.416,2.76,7.032c-0.019,0.765-0.522,16.677-9.316,43.669    c8.882-1.115,20.503-4.126,28.996-11.961c7.952-7.341,11.98-18.091,11.98-31.951c0-5.374,4.349-9.722,9.724-9.722h31.621    l34.738-0.301l0,0c7.079,0,13.637-2.789,18.556-7.844c4.949-5.094,7.67-11.854,7.67-19.031v-95.868    c0-25.103,20.667-45.517,46.07-45.517h211.92c25.469,0,45.429,19.989,45.429,45.517v167.97c0,25.993-20.376,47.135-45.429,47.135    h-96.004c1.463,9.016,4.659,23.485,11.642,40.734c1.161,2.857,0.89,6.11-0.717,8.736c-1.618,2.634-4.388,4.339-7.467,4.6    C461.723,493.591,459.883,493.736,456.959,493.736z"></path>
</svg>