<svg width="350" height="365" viewBox="0 0 350 365" fill="none" xmlns="http://www.w3.org/2000/svg">
<path d="M120.952 163.191L108.669 281.894C108.363 284.834 106.975 287.555 104.775 289.529C102.574 291.502 99.7182 292.586 96.7625 292.57H56.9765C55.3057 292.579 53.6519 292.236 52.1224 291.563C50.5929 290.891 49.2221 289.904 48.0991 288.667C46.9761 287.429 46.126 285.97 45.6042 284.383C45.0825 282.795 44.9006 281.116 45.0705 279.454L57.4329 160.85C57.7383 157.91 59.1263 155.189 61.3268 153.215C63.5274 151.242 66.3833 150.158 69.3389 150.174H109.185C110.834 150.186 112.464 150.541 113.969 151.216C115.475 151.891 116.823 152.872 117.93 154.096C119.036 155.32 119.876 156.76 120.396 158.326C120.917 159.892 121.106 161.549 120.952 163.191Z" fill="black"/>
<path d="M290.497 292.512H250.711C247.755 292.528 244.9 291.444 242.699 289.471C240.498 287.498 239.11 284.776 238.805 281.836L226.502 163.193C226.332 161.531 226.514 159.851 227.036 158.264C227.558 156.677 228.408 155.217 229.531 153.98C230.654 152.743 232.025 151.756 233.554 151.083C235.084 150.411 236.737 150.068 238.408 150.076H278.194C281.15 150.061 284.006 151.145 286.206 153.118C288.407 155.091 289.795 157.812 290.1 160.752L302.403 279.396C302.573 281.058 302.391 282.737 301.869 284.324C301.348 285.912 300.498 287.371 299.375 288.609C298.252 289.846 296.881 290.833 295.351 291.505C293.822 292.178 292.168 292.521 290.497 292.512Z" fill="black"/>
<path d="M335.343 364.169H12.1336C10.0959 364.168 8.09247 363.644 6.31517 362.647C4.53788 361.65 3.0461 360.214 1.98279 358.476C0.919469 356.737 0.320151 354.755 0.24213 352.719C0.164109 350.683 0.610023 348.66 1.53721 346.846L13.4432 323.53C14.4393 321.58 15.9534 319.943 17.8194 318.799C19.6853 317.654 21.8307 317.046 24.0198 317.041H323.397C325.604 317.035 327.769 317.642 329.65 318.795C331.532 319.948 333.056 321.601 334.053 323.569L345.959 346.885C346.878 348.7 347.316 350.72 347.233 352.752C347.149 354.784 346.546 356.761 345.482 358.495C344.417 360.228 342.926 361.659 341.151 362.653C339.376 363.646 337.377 364.168 335.343 364.169Z" fill="black"/>
<path d="M16.2814 75.6445H337.625C339.631 75.6467 341.603 76.1553 343.359 77.1233C345.116 78.0912 346.599 79.4871 347.672 81.1813C348.744 82.8756 349.372 84.8134 349.496 86.8149C349.62 88.8164 349.236 90.8168 348.38 92.6305L335.74 119.34C334.775 121.376 333.252 123.096 331.348 124.301C329.445 125.505 327.238 126.145 324.985 126.146H28.9415C26.6885 126.145 24.4819 125.505 22.5781 124.301C20.6743 123.096 19.1514 121.376 18.1864 119.34L5.52628 92.6305C4.67066 90.8168 4.28703 88.8164 4.41094 86.8149C4.53484 84.8134 5.16226 82.8756 6.23504 81.1813C7.30782 79.4871 8.79116 78.0912 10.5474 77.1233C12.3037 76.1553 14.276 75.6467 16.2814 75.6445Z" fill="black"/>
<path d="M273.053 51.1161H77.6153C75.7608 51.121 73.9308 50.6926 72.2712 49.8651C70.6115 49.0376 69.1681 47.8338 68.056 46.3498C66.9439 44.8657 66.1938 43.1423 65.8657 41.3171C65.5375 39.4918 65.6402 37.6152 66.1657 35.8367L74.103 9.12747C74.8412 6.67614 76.3498 4.52803 78.4051 3.00174C80.4604 1.47545 82.9529 0.652245 85.513 0.654301H264.917C267.477 0.652245 269.97 1.47545 272.025 3.00174C274.08 4.52803 275.589 6.67614 276.327 9.12747L284.443 35.8367C284.967 37.6104 285.071 39.4817 284.746 41.3024C284.421 43.1231 283.676 44.8431 282.57 46.3259C281.465 47.8087 280.029 49.0136 278.377 49.8451C276.725 50.6765 274.902 51.1117 273.053 51.1161Z" fill="black"/>
<path d="M200.087 292.514H147.522C145.864 292.52 144.223 292.181 142.704 291.517C141.185 290.853 139.821 289.878 138.701 288.657C137.58 287.435 136.727 285.993 136.195 284.422C135.664 282.852 135.467 281.187 135.616 279.536L146.55 160.853C146.823 157.888 148.197 155.133 150.401 153.131C152.605 151.129 155.479 150.026 158.456 150.038H189.193C192.171 150.026 195.045 151.129 197.249 153.131C199.453 155.133 200.827 157.888 201.099 160.853L212.033 279.496C212.189 281.154 211.995 282.826 211.464 284.404C210.933 285.982 210.077 287.431 208.951 288.658C207.826 289.885 206.455 290.862 204.928 291.526C203.401 292.19 201.752 292.527 200.087 292.514Z" fill="black"/>
</svg>
